IDIOMA: ESPAÑOL LATINO

escate de las hadas 2010.rmvb
Format                           : RealMedia
File size                        : 246 MiB
Duration                         : 1h 16mn
Overall bit rate                 : 447 Kbps

Video
ID                               : 1
Format                           : RealVideo 4
Codec ID                         : RV40
Codec ID/Info                    : Based on AVC (H.264), Real Player 9
Duration                         : 1h 16mn
Bit rate                         : 383 Kbps
Width                            : 640 pixels
Height                           : 352 pixels
Display aspect ratio             : 16:9
Frame rate                       : 23.000 fps
Resolution                       : 12 bits
Bits/(Pixel*Frame)               : 0.074
Stream size                      : 209 MiB (85%)

Audio
ID                               : 0
Format                           : Cooker
Codec ID                         : cook
Codec ID/Info                    : Based on G.722.1, Real Player 6
Duration                         : 1h 10mn
Bit rate                         : 64.1 Kbps
Channel(s)                       : 2 channels
Sampling rate                    : 44.1 KHz
Resolution                       : 16 bits
Stream size                      : 32.1 MiB (13%)
